<svg width="588" height="590" viewBox="0 0 588 590" fill="none" xmlns="http://www.w3.org/2000/svg">
<g filter="url(#filter0_d_1_992)">
<path fill-rule="evenodd" clip-rule="evenodd" d="M-29.3362 353.733L27.4794 211.143L49.6798 266.379C75.0692 250.393 100.751 235.086 126.992 220.191L130.351 218.396L83.1753 100.283H-28.0704L-129.409 354.024L-251 658.221C-197.252 600.366 -141.969 545.566 -85.4459 493.945C-30.3099 443.731 25.9458 396.306 83.7352 351.792C109.124 332.167 134.83 313.125 160.78 294.47C266.037 219.221 375.457 152.729 488.942 94.4371C496.902 102.248 498.29 116.294 507.929 151.614C527.184 81.5076 513.65 94.995 584 75.8068C513.65 56.6186 527.184 70.106 507.929 -2.84905e-06C488.674 70.106 502.209 56.6186 431.859 75.8068C462.847 84.2972 477.647 86.3834 486.021 92.084C366.669 132.28 251.383 182.373 140.819 244.668C113.75 259.975 86.8023 276.107 60.2689 292.942C29.9867 312.154 0.118313 332.458 -29.3362 353.733ZM-236.76 672L-234.666 669.914L-232.719 667.682L-230.625 665.596L-228.653 663.51L-226.56 661.424L-224.613 659.192L-222.519 657.106L-220.572 655.019L-218.478 652.933L-216.507 650.847L-212.32 646.675L-210.372 644.588L-208.279 642.502L-206.331 640.416L-202.144 636.244L-200.197 634.157L-196.01 629.985L-194.038 627.899L-191.945 625.958V625.813L-189.851 623.872L-187.904 621.786H-187.758L-185.811 619.699L-183.717 617.759L-181.624 615.673L-179.676 613.586L-177.583 611.621L-173.396 607.449L-169.331 603.422L-167.237 601.482L-165.144 599.395L-163.05 597.43L-161.103 595.344L-156.916 591.463L-154.822 589.377L-152.729 587.436L-150.635 585.471L-148.688 583.385L-144.501 579.504L-142.408 577.539V577.417L-140.314 575.453L-134.034 569.631L-131.94 567.666L-129.847 565.725L-127.729 563.784L-125.636 561.819L-123.688 559.879L-119.501 555.997L-117.408 554.033L-113.221 550.151L-111.127 548.186L-106.94 544.305L-104.701 542.486L-100.66 538.75L-100.392 538.459L-98.7127 536.931L-95.6455 534.141L-95.3534 533.874L-90.3388 529.289L-90.1928 529.144L-89.4868 528.586C-86.5657 525.942 -83.4985 523.152 -80.4314 520.508L-79.8715 519.95L-75.3924 516.068L-74.6865 515.365L-74.2727 515.098L-73.5911 514.395L-69.5259 510.78H-69.4042L-65.0712 506.875L-64.2192 506.195L-59.0586 501.732L-58.9369 501.611L-55.8453 498.967L-53.8979 497.147L-52.7782 496.322L-49.711 493.533L-48.7373 492.708L-48.1774 492.271L-43.5767 488.244H-43.4306C-40.3634 485.6 -37.2963 482.956 -34.3508 480.457L-32.9633 479.342L-28.0704 475.169L-27.8027 474.902L-22.496 470.439L-21.9361 470.027C-18.8689 467.382 -15.6557 464.738 -12.5885 462.24L-12.0286 461.827C-5.04232 455.981 1.944 450.135 9.05204 444.434L9.19809 444.289C19.6654 435.944 29.9867 427.599 40.454 419.4L40.7461 419.109L45.9067 415.227L46.1745 414.936L46.7344 414.378C57.2017 406.325 67.669 398.246 78.1364 390.314L78.4285 390.169C83.7352 386.142 88.8958 382.115 94.2025 378.209L98.8032 374.74H98.9493L99.0953 374.595L100.337 373.77L103.964 371.126L105.084 370.156L105.497 369.864L106.349 369.307L112.07 365.134L112.216 365.013L112.338 364.867L118.35 360.404L118.764 360.137L125.458 355.407L125.75 355.115L130.497 351.647L131.739 350.822L132.031 350.676L133.005 349.973C137.045 347.062 141.111 344.127 145.152 341.361L145.298 341.216L146.417 340.391L151.992 336.485L152.406 336.218L153.671 335.224L157.298 332.725L158.54 331.9V331.755L159.806 331.051L163.433 328.407L164.699 327.582L165.818 326.758L171.953 322.585L279.571 591.875H179.621L125.337 456.102L117.937 460.566L102.163 469.881L95.4683 473.908L78.9883 483.805L72.9757 487.274L55.8142 497.559L50.5075 500.762L32.64 511.338L28.0393 514.128L9.46587 525.238L5.57104 527.47L-13.7083 539.017L-16.9215 540.836L-36.8824 552.795L-39.2437 554.324L-131.502 609.268L-236.76 672Z" fill="black"/>
</g>
<defs>
<filter id="filter0_d_1_992" x="-255" y="0" width="843" height="680" filterUnits="userSpaceOnUse" color-interpolation-filters="sRGB">
<feFlood flood-opacity="0" result="BackgroundImageFix"/>
<feColorMatrix in="SourceAlpha" type="matrix" values="0 0 0 0 0 0 0 0 0 0 0 0 0 0 0 0 0 0 127 0" result="hardAlpha"/>
<feOffset dy="4"/>
<feGaussianBlur stdDeviation="2"/>
<feComposite in2="hardAlpha" operator="out"/>
<feColorMatrix type="matrix" values="0 0 0 0 0 0 0 0 0 0 0 0 0 0 0 0 0 0 0.25 0"/>
<feBlend mode="normal" in2="BackgroundImageFix" result="effect1_dropShadow_1_992"/>
<feBlend mode="normal" in="SourceGraphic" in2="effect1_dropShadow_1_992" result="shape"/>
</filter>
</defs>
</svg>
