<svg width="400" height="400" viewBox="0 0 400 400" fill="none" xmlns="http://www.w3.org/2000/svg">
<mask id="mask0_184_380" style="mask-type:luminance" maskUnits="userSpaceOnUse" x="22" y="114" width="180" height="145">
<path d="M22.7786 114.93H201.555V258.93H22.7786V114.93Z" fill="white"/>
</mask>
<g mask="url(#mask0_184_380)">
<path fill-rule="evenodd" clip-rule="evenodd" d="M70.2109 190.878L82.3671 160.263L87.1171 172.122C92.5494 168.69 98.0442 165.404 103.659 162.206L104.378 161.82L94.2838 136.461H70.4817L48.7994 190.94L22.7838 256.253C34.2838 243.831 46.1119 232.065 58.2057 220.982C70.0026 210.201 82.039 200.018 94.4036 190.461C99.8359 186.247 105.336 182.159 110.888 178.154C133.409 161.997 156.82 147.721 181.102 135.206C182.805 136.883 183.102 139.898 185.164 147.482C189.284 132.43 186.388 135.326 201.44 131.206C186.388 127.086 189.284 129.982 185.164 114.93C181.044 129.982 183.94 127.086 168.888 131.206C175.518 133.029 178.685 133.477 180.477 134.701C154.94 143.331 130.273 154.086 106.617 167.461C100.825 170.747 95.0599 174.211 89.3828 177.826C82.9036 181.951 76.513 186.31 70.2109 190.878ZM25.8307 259.211L26.2786 258.763L26.6953 258.284L27.1432 257.836L27.5651 257.388L28.013 256.94L28.4296 256.461L28.8776 256.013L29.2942 255.565L29.7421 255.117L30.164 254.669L31.0599 253.773L31.4765 253.326L31.9244 252.878L32.3411 252.43L33.2369 251.534L33.6536 251.086L34.5494 250.19L34.9713 249.742L35.4192 249.326V249.294L35.8671 248.878L36.2838 248.43H36.3151L36.7317 247.982L37.1796 247.565L37.6276 247.117L38.0442 246.669L38.4921 246.247L39.388 245.352L40.2578 244.487L40.7057 244.07L41.1536 243.622L41.6015 243.201L42.0182 242.753L42.914 241.919L43.3619 241.471L43.8099 241.055L44.2578 240.633L44.6744 240.185L45.5703 239.352L46.0182 238.93V238.904L46.4661 238.482L47.8099 237.232L48.2578 236.81L48.7057 236.393L49.1588 235.977L49.6067 235.555L50.0234 235.138L50.9192 234.305L51.3671 233.883L52.263 233.049L52.7109 232.628L53.6067 231.794L54.0859 231.404L54.9505 230.602L55.0078 230.539L55.3671 230.211L56.0234 229.612L56.0859 229.555L57.1588 228.57L57.1901 228.539L57.3411 228.419C57.9661 227.852 58.6224 227.253 59.2786 226.685L59.3984 226.565L60.3567 225.732L60.5078 225.581L60.5963 225.523L60.7421 225.372L61.6119 224.596H61.638L62.5651 223.758L62.7474 223.612L63.8515 222.654L63.8776 222.628L64.539 222.06L64.9557 221.669L65.1953 221.492L65.8515 220.893L66.0599 220.716L66.1796 220.622L67.164 219.758H67.1953C67.8515 219.19 68.5078 218.622 69.138 218.086L69.4349 217.846L70.4817 216.951L70.539 216.893L71.6744 215.935L71.7942 215.846C72.4505 215.279 73.138 214.711 73.7942 214.174L73.914 214.086C75.4088 212.831 76.9036 211.576 78.4244 210.352L78.4557 210.32C80.6953 208.529 82.9036 206.737 85.1432 204.977L85.2057 204.914L86.3099 204.081L86.3671 204.018L86.4869 203.898C88.7265 202.169 90.9661 200.435 93.2057 198.732L93.2682 198.701C94.4036 197.836 95.5078 196.971 96.6432 196.133L97.6276 195.388H97.6588L97.6901 195.357L97.9557 195.18L98.7317 194.612L98.9713 194.404L99.0599 194.341L99.2421 194.221L100.466 193.326L100.497 193.299L100.523 193.268L101.81 192.31L101.898 192.253L103.331 191.237L103.393 191.174L104.409 190.43L104.674 190.253L104.737 190.221L104.945 190.07C105.81 189.445 106.68 188.815 107.544 188.221L107.575 188.19L107.815 188.013L109.008 187.174L109.096 187.117L109.367 186.904L110.143 186.367L110.409 186.19V186.159L110.68 186.008L111.456 185.44L111.727 185.263L111.966 185.086L113.279 184.19L136.305 242.008H114.919L103.305 212.857L101.721 213.815L98.3463 215.815L96.914 216.68L93.388 218.805L92.1015 219.549L88.4296 221.758L87.2942 222.445L83.4713 224.716L82.4869 225.315L78.513 227.701L77.6796 228.18L73.5546 230.659L72.8671 231.049L68.5963 233.617L68.0911 233.945L48.3515 245.742L25.8307 259.211Z" fill="white"/>
</g>
<mask id="mask1_184_380" style="mask-type:luminance" maskUnits="userSpaceOnUse" x="130" y="164" width="59" height="78">
<path d="M130.966 164.466H188.966V241.466H130.966V164.466Z" fill="white"/>
</mask>
<g mask="url(#mask1_184_380)">
<path d="M188.508 164.477H130.971V178.607H152.674V241.695H166.805V178.607H188.508V164.477Z" fill="white"/>
</g>
<mask id="mask2_184_380" style="mask-type:luminance" maskUnits="userSpaceOnUse" x="195" y="164" width="64" height="78">
<path d="M195.44 164.466H258.44V241.466H195.44V164.466Z" fill="white"/>
</mask>
<g mask="url(#mask2_184_380)">
<path d="M258.451 239.128L243.549 210.982C251.836 207.128 256.898 198.982 256.898 189.263C256.898 174.201 245.711 164.466 228.388 164.466H197.221C196.253 164.466 195.466 165.253 195.466 166.222V239.945C195.466 240.914 196.253 241.701 197.221 241.701H209.508C210.477 241.701 211.263 240.914 211.263 239.945V213.617H227.065L241.445 240.768C241.747 241.341 242.346 241.701 242.992 241.701H256.898C257.518 241.701 258.086 241.378 258.404 240.852C258.721 240.326 258.742 239.669 258.451 239.128ZM227.102 201.331H211.263V176.753H226.779C235.674 176.753 241.102 181.435 241.102 189.07C241.102 196.852 236.003 201.331 227.102 201.331Z" fill="white"/>
</g>
<mask id="mask3_184_380" style="mask-type:luminance" maskUnits="userSpaceOnUse" x="266" y="164" width="15" height="78">
<path d="M266.404 164.466H280.404V241.466H266.404V164.466Z" fill="white"/>
</mask>
<g mask="url(#mask3_184_380)">
<path fill-rule="evenodd" clip-rule="evenodd" d="M279.607 241.68H267.263C266.763 241.68 266.404 241.268 266.404 240.773V165.352C266.404 165.128 266.492 164.945 266.628 164.763C266.763 164.539 267.039 164.492 267.263 164.492H279.607C280.107 164.492 280.466 164.852 280.466 165.352V240.773C280.466 241.044 280.331 241.227 280.195 241.409C280.107 241.586 279.831 241.68 279.607 241.68Z" fill="white"/>
</g>
<mask id="mask4_184_380" style="mask-type:luminance" maskUnits="userSpaceOnUse" x="287" y="164" width="71" height="78">
<path d="M287.466 164.466H357.466V241.466H287.466V164.466Z" fill="white"/>
</mask>
<g mask="url(#mask4_184_380)">
<path d="M357.383 239.263L331.549 165.748C331.305 165.05 330.643 164.581 329.898 164.581H315.049C314.31 164.581 313.648 165.05 313.404 165.748L287.57 239.263C287.383 239.795 287.466 240.388 287.794 240.852C288.117 241.315 288.654 241.591 289.221 241.591H300.378C301.117 241.591 301.784 241.123 302.029 240.42L308.383 222.336H336.57L342.924 240.42C343.169 241.123 343.831 241.591 344.57 241.591H355.732C356.299 241.591 356.831 241.315 357.159 240.852C357.487 240.388 357.57 239.8 357.383 239.263ZM321.914 183.831H323.034L332.263 210.086H312.685L321.914 183.831Z" fill="white"/>
</g>
<mask id="mask5_184_380" style="mask-type:luminance" maskUnits="userSpaceOnUse" x="281" y="259" width="23" height="27">
<path d="M281.128 259.211H303.128V285.07H281.128V259.211Z" fill="white"/>
</mask>
<g mask="url(#mask5_184_380)">
<path d="M302.831 270.893H293.93C293.622 270.893 293.372 271.143 293.372 271.451V274.232C293.372 274.539 293.622 274.789 293.93 274.789H298.383V275.206C298.383 278.268 296.372 280.352 292.815 280.352C288.664 280.352 286.138 277.268 286.138 271.966C286.138 266.732 288.607 263.664 292.68 263.664C295.513 263.664 296.924 264.93 297.956 267.221C298.049 267.424 298.242 267.555 298.466 267.555H302.549C302.706 267.555 302.831 267.43 302.831 267.279C302.831 267.258 302.831 267.237 302.826 267.216C301.659 262.211 297.81 259.211 292.576 259.211C285.622 259.211 281.133 264.232 281.133 271.997C281.133 279.898 285.539 284.805 292.638 284.805C299.169 284.805 303.388 280.69 303.388 274.326V271.451C303.388 271.143 303.138 270.893 302.831 270.893Z" fill="white"/>
</g>
<mask id="mask6_184_380" style="mask-type:luminance" maskUnits="userSpaceOnUse" x="315" y="259" width="21" height="27">
<path d="M315.07 259.211H335.07V285.07H315.07V259.211Z" fill="white"/>
</mask>
<g mask="url(#mask6_184_380)">
<path d="M327.299 284.805H323.227C322.909 284.805 322.648 284.544 322.648 284.221V263.284H315.669C315.346 263.284 315.086 263.023 315.086 262.701V259.794C315.086 259.471 315.346 259.211 315.669 259.211H334.862C335.185 259.211 335.445 259.471 335.445 259.794V262.701C335.445 263.023 335.185 263.284 334.862 263.284H327.883V284.221C327.883 284.544 327.622 284.805 327.299 284.805Z" fill="white"/>
</g>
<mask id="mask7_184_380" style="mask-type:luminance" maskUnits="userSpaceOnUse" x="334" y="259" width="24" height="27">
<path d="M334.461 259.211H357.461V285.07H334.461V259.211Z" fill="white"/>
</mask>
<g mask="url(#mask7_184_380)">
<path d="M357.633 283.997L349.07 259.633C348.992 259.398 348.773 259.242 348.523 259.242H343.602C343.357 259.242 343.138 259.398 343.055 259.633L334.492 283.997C334.43 284.174 334.461 284.372 334.565 284.529C334.674 284.68 334.852 284.773 335.039 284.773H338.737C338.987 284.773 339.206 284.617 339.284 284.383L341.393 278.388H350.737L352.841 284.383C352.924 284.617 353.143 284.773 353.388 284.773H357.086C357.273 284.773 357.451 284.68 357.56 284.529C357.669 284.372 357.695 284.18 357.633 283.997ZM345.878 265.628H346.247L349.31 274.331H342.82L345.878 265.628Z" fill="white"/>
</g>
<mask id="mask8_184_380" style="mask-type:luminance" maskUnits="userSpaceOnUse" x="360" y="259" width="18" height="27">
<path d="M360.221 259.211H377.221V285.07H360.221V259.211Z" fill="white"/>
</mask>
<g mask="url(#mask8_184_380)">
<path d="M364.883 259.211H360.815C360.492 259.211 360.232 259.471 360.232 259.794V284.221C360.232 284.544 360.492 284.805 360.815 284.805H377.102C377.419 284.805 377.68 284.544 377.68 284.221V280.732C377.68 280.414 377.419 280.154 377.102 280.154H365.466V259.794C365.466 259.471 365.206 259.211 364.883 259.211Z" fill="white"/>
</g>
<mask id="mask9_184_380" style="mask-type:luminance" maskUnits="userSpaceOnUse" x="273" y="259" width="6" height="27">
<path d="M273.466 259.211H278.466V285.07H273.466V259.211Z" fill="white"/>
</mask>
<g mask="url(#mask9_184_380)">
<path fill-rule="evenodd" clip-rule="evenodd" d="M277.836 284.789H273.747C273.586 284.789 273.466 284.654 273.466 284.487V259.513C273.466 259.44 273.492 259.378 273.539 259.32C273.586 259.242 273.674 259.232 273.747 259.232H277.836C278.003 259.232 278.122 259.352 278.122 259.513V284.487C278.122 284.576 278.076 284.638 278.029 284.695C278.003 284.758 277.909 284.789 277.836 284.789Z" fill="white"/>
</g>
<mask id="mask10_184_380" style="mask-type:luminance" maskUnits="userSpaceOnUse" x="247" y="259" width="23" height="27">
<path d="M247.346 259.211H269.346V285.07H247.346V259.211Z" fill="white"/>
</mask>
<g mask="url(#mask10_184_380)">
<path d="M257.216 259.211H247.93C247.607 259.211 247.346 259.471 247.346 259.794V284.221C247.346 284.544 247.607 284.805 247.93 284.805H257.216C264.992 284.805 269.451 280.102 269.451 271.898C269.451 263.956 264.878 259.211 257.216 259.211ZM256.727 280.732H252.581V263.284H256.727C261.435 263.284 264.216 266.451 264.216 271.966C264.216 277.602 261.503 280.732 256.727 280.732Z" fill="white"/>
</g>
<mask id="mask11_184_380" style="mask-type:luminance" maskUnits="userSpaceOnUse" x="307" y="259" width="6" height="27">
<path d="M307.409 259.211H312.221V285.07H307.409V259.211Z" fill="white"/>
</mask>
<g mask="url(#mask11_184_380)">
<path fill-rule="evenodd" clip-rule="evenodd" d="M311.779 284.789H307.69C307.529 284.789 307.409 284.654 307.409 284.487V259.513C307.409 259.44 307.435 259.378 307.482 259.32C307.529 259.242 307.617 259.232 307.69 259.232H311.779C311.945 259.232 312.065 259.352 312.065 259.513V284.487C312.065 284.576 312.018 284.638 311.971 284.695C311.945 284.758 311.852 284.789 311.779 284.789Z" fill="white"/>
</g>
</svg>
