<svg width="620" height="590" viewBox="0 0 620 590" fill="none" xmlns="http://www.w3.org/2000/svg">
<g filter="url(#filter0_d_1_992)">
<path fill-rule="evenodd" clip-rule="evenodd" d="M2.66376 353.733L59.4794 211.143L81.6798 266.379C107.069 250.393 132.751 235.086 158.992 220.191L162.351 218.396L115.175 100.283H3.92957L-97.4087 354.024L-219 658.221C-165.252 600.366 -109.969 545.566 -53.4459 493.945C1.69006 443.731 57.9458 396.306 115.735 351.792C141.124 332.167 166.83 313.125 192.78 294.47C298.037 219.221 407.457 152.729 520.942 94.4371C528.902 102.248 530.29 116.294 539.929 151.614C559.184 81.5076 545.65 94.995 616 75.8068C545.65 56.6186 559.184 70.106 539.929 -2.84905e-06C520.674 70.106 534.209 56.6186 463.859 75.8068C494.847 84.2972 509.647 86.3834 518.021 92.084C398.669 132.28 283.383 182.373 172.819 244.668C145.75 259.975 118.802 276.107 92.2689 292.942C61.9867 312.154 32.1183 332.458 2.66376 353.733ZM-204.76 672L-202.666 669.914L-200.719 667.682L-198.625 665.596L-196.653 663.51L-194.56 661.424L-192.613 659.192L-190.519 657.106L-188.572 655.019L-186.478 652.933L-184.507 650.847L-180.32 646.675L-178.372 644.588L-176.279 642.502L-174.331 640.416L-170.144 636.244L-168.197 634.157L-164.01 629.985L-162.038 627.899L-159.945 625.958V625.813L-157.851 623.872L-155.904 621.786H-155.758L-153.811 619.699L-151.717 617.759L-149.624 615.673L-147.676 613.586L-145.583 611.621L-141.396 607.449L-137.331 603.422L-135.237 601.482L-133.144 599.395L-131.05 597.43L-129.103 595.344L-124.916 591.463L-122.822 589.377L-120.729 587.436L-118.635 585.471L-116.688 583.385L-112.501 579.504L-110.408 577.539V577.417L-108.314 575.453L-102.034 569.631L-99.9403 567.666L-97.8469 565.725L-95.7291 563.784L-93.6356 561.819L-91.6882 559.879L-87.5013 555.997L-85.4078 554.033L-81.2209 550.151L-79.1274 548.186L-74.9405 544.305L-72.7009 542.486L-68.6601 538.75L-68.3923 538.459L-66.7127 536.931L-63.6455 534.141L-63.3534 533.874L-58.3388 529.289L-58.1928 529.144L-57.4868 528.586C-54.5657 525.942 -51.4985 523.152 -48.4314 520.508L-47.8715 519.95L-43.3924 516.068L-42.6865 515.365L-42.2727 515.098L-41.5911 514.395L-37.5259 510.78H-37.4042L-33.0712 506.875L-32.2192 506.195L-27.0586 501.732L-26.9369 501.611L-23.8453 498.967L-21.8979 497.147L-20.7782 496.322L-17.711 493.533L-16.7373 492.708L-16.1774 492.271L-11.5767 488.244H-11.4306C-8.36344 485.6 -5.29628 482.956 -2.35082 480.457L-0.963287 479.342L3.92957 475.169L4.19735 474.902L9.50403 470.439L10.0639 470.027C13.1311 467.382 16.3443 464.738 19.4115 462.24L19.9714 461.827C26.9577 455.981 33.944 450.135 41.052 444.434L41.1981 444.289C51.6654 435.944 61.9867 427.599 72.454 419.4L72.7461 419.109L77.9067 415.227L78.1745 414.936L78.7344 414.378C89.2017 406.325 99.669 398.246 110.136 390.314L110.428 390.169C115.735 386.142 120.896 382.115 126.202 378.209L130.803 374.74H130.949L131.095 374.595L132.337 373.77L135.964 371.126L137.084 370.156L137.497 369.864L138.349 369.307L144.07 365.134L144.216 365.013L144.338 364.867L150.35 360.404L150.764 360.137L157.458 355.407L157.75 355.115L162.497 351.647L163.739 350.822L164.031 350.676L165.005 349.973C169.045 347.062 173.111 344.127 177.152 341.361L177.298 341.216L178.417 340.391L183.992 336.485L184.406 336.218L185.671 335.224L189.298 332.725L190.54 331.9V331.755L191.806 331.051L195.433 328.407L196.699 327.582L197.818 326.758L203.953 322.585L311.571 591.875H211.621L157.337 456.102L149.937 460.566L134.163 469.881L127.468 473.908L110.988 483.805L104.976 487.274L87.8142 497.559L82.5075 500.762L64.64 511.338L60.0393 514.128L41.4659 525.238L37.571 527.47L18.2917 539.017L15.0785 540.836L-4.88244 552.795L-7.2437 554.324L-99.5022 609.268L-204.76 672Z" fill="#FF7B00"/>
</g>
<defs>
<filter id="filter0_d_1_992" x="-223" y="0" width="843" height="680" filterUnits="userSpaceOnUse" color-interpolation-filters="sRGB">
<feFlood flood-opacity="0" result="BackgroundImageFix"/>
<feColorMatrix in="SourceAlpha" type="matrix" values="0 0 0 0 0 0 0 0 0 0 0 0 0 0 0 0 0 0 127 0" result="hardAlpha"/>
<feOffset dy="4"/>
<feGaussianBlur stdDeviation="2"/>
<feComposite in2="hardAlpha" operator="out"/>
<feColorMatrix type="matrix" values="0 0 0 0 0 0 0 0 0 0 0 0 0 0 0 0 0 0 0.25 0"/>
<feBlend mode="normal" in2="BackgroundImageFix" result="effect1_dropShadow_1_992"/>
<feBlend mode="normal" in="SourceGraphic" in2="effect1_dropShadow_1_992" result="shape"/>
</filter>
</defs>
</svg>
