<svg width="843" height="680" viewBox="0 0 843 680" fill="none" xmlns="http://www.w3.org/2000/svg">
<g filter="url(#filter0_d_1_992)">
<path fill-rule="evenodd" clip-rule="evenodd" d="M225.664 353.733L282.479 211.143L304.68 266.379C330.069 250.393 355.751 235.086 381.992 220.191L385.351 218.396L338.175 100.283H226.93L125.591 354.024L4 658.221C57.7485 600.366 113.031 545.566 169.554 493.945C224.69 443.731 280.946 396.306 338.735 351.792C364.125 332.167 389.83 313.125 415.78 294.47C521.037 219.221 630.457 152.729 743.942 94.4371C751.902 102.248 753.29 116.294 762.929 151.614C782.184 81.5076 768.65 94.995 839 75.8068C768.65 56.6186 782.184 70.106 762.929 -2.84905e-06C743.674 70.106 757.209 56.6186 686.859 75.8068C717.847 84.2972 732.647 86.3834 741.021 92.084C621.669 132.28 506.383 182.373 395.819 244.668C368.75 259.975 341.802 276.107 315.269 292.942C284.987 312.154 255.118 332.458 225.664 353.733ZM18.2404 672L20.3339 669.914L22.2813 667.682L24.3748 665.596L26.3465 663.51L28.44 661.424L30.3874 659.192L32.4808 657.106L34.4283 655.019L36.5217 652.933L38.4935 650.847L42.6804 646.675L44.6278 644.588L46.7213 642.502L48.6687 640.416L52.8556 636.244L54.803 634.157L58.9899 629.985L60.9617 627.899L63.0552 625.958V625.812L65.1486 623.872L67.096 621.786H67.2421L69.1895 619.699L71.283 617.759L73.3764 615.673L75.3238 613.586L77.4173 611.622L81.6042 607.449L85.6694 603.422L87.7629 601.482L89.8564 599.395L91.9498 597.43L93.8972 595.344L98.0842 591.463L100.178 589.377L102.271 587.436L104.365 585.471L106.312 583.385L110.499 579.504L112.592 577.539V577.417L114.686 575.453L120.966 569.631L123.06 567.666L125.153 565.725L127.271 563.784L129.364 561.819L131.312 559.879L135.499 555.997L137.592 554.033L141.779 550.151L143.873 548.186L148.06 544.305L150.299 542.486L154.34 538.75L154.608 538.459L156.287 536.931L159.355 534.141L159.647 533.874L164.661 529.289L164.807 529.144L165.513 528.586C168.434 525.942 171.501 523.152 174.569 520.508L175.129 519.95L179.608 516.068L180.313 515.365L180.727 515.098L181.409 514.395L185.474 510.78H185.596L189.929 506.875L190.781 506.195L195.941 501.732L196.063 501.611L199.155 498.967L201.102 497.147L202.222 496.322L205.289 493.533L206.263 492.708L206.823 492.271L211.423 488.244H211.569C214.637 485.6 217.704 482.956 220.649 480.457L222.037 479.342L226.93 475.169L227.197 474.902L232.504 470.439L233.064 470.027C236.131 467.382 239.344 464.738 242.411 462.24L242.971 461.827C249.958 455.981 256.944 450.135 264.052 444.434L264.198 444.289C274.665 435.944 284.987 427.599 295.454 419.4L295.746 419.109L300.907 415.227L301.174 414.936L301.734 414.378C312.202 406.325 322.669 398.246 333.136 390.314L333.428 390.169C338.735 386.142 343.896 382.115 349.202 378.209L353.803 374.74H353.949L354.095 374.595L355.337 373.77L358.964 371.126L360.084 370.156L360.497 369.864L361.349 369.307L367.07 365.134L367.216 365.013L367.338 364.867L373.35 360.404L373.764 360.137L380.458 355.407L380.75 355.116L385.497 351.647L386.739 350.822L387.031 350.676L388.005 349.973C392.045 347.062 396.111 344.127 400.152 341.361L400.298 341.216L401.417 340.391L406.992 336.485L407.406 336.218L408.671 335.224L412.298 332.725L413.54 331.9V331.755L414.806 331.051L418.433 328.407L419.699 327.582L420.818 326.758L426.953 322.585L534.571 591.875H434.621L380.337 456.102L372.937 460.566L357.163 469.881L350.468 473.908L333.988 483.805L327.976 487.274L310.814 497.56L305.508 500.762L287.64 511.338L283.039 514.128L264.466 525.238L260.571 527.47L241.292 539.017L238.078 540.836L218.118 552.795L215.756 554.324L123.498 609.268L18.2404 672Z" fill="#FF7B00"/>
</g>
<defs>
<filter id="filter0_d_1_992" x="0" y="0" width="843" height="680" filterUnits="userSpaceOnUse" color-interpolation-filters="sRGB">
<feFlood flood-opacity="0" result="BackgroundImageFix"/>
<feColorMatrix in="SourceAlpha" type="matrix" values="0 0 0 0 0 0 0 0 0 0 0 0 0 0 0 0 0 0 127 0" result="hardAlpha"/>
<feOffset dy="4"/>
<feGaussianBlur stdDeviation="2"/>
<feComposite in2="hardAlpha" operator="out"/>
<feColorMatrix type="matrix" values="0 0 0 0 0 0 0 0 0 0 0 0 0 0 0 0 0 0 0.25 0"/>
<feBlend mode="normal" in2="BackgroundImageFix" result="effect1_dropShadow_1_992"/>
<feBlend mode="normal" in="SourceGraphic" in2="effect1_dropShadow_1_992" result="shape"/>
</filter>
</defs>
</svg>
